<svg id="Logo_FMS" data-name="Log FMS" xmlns="http://www.w3.org/2000/svg" viewBox="0 0 1069 1069"><defs><style>.cls-1{fill:#fff;}</style></defs><g id="group"><path d="M512,0h45c7.28.63,14.56,1.3,21.85,1.88,57.21,4.59,112.36,17.87,165,40.75q181.36,78.9,270.25,255.83c28.64,57.1,45.69,117.69,52.08,181.26,1.08,10.75,1.91,21.52,2.85,32.28v45c-.28,2.13-.71,4.25-.82,6.38-2.21,43.78-9.47,86.71-22.8,128.45q-66,206.73-255.78,312.34c-62.3,34.62-129.36,54.82-200.3,62-10.76,1.09-21.53,1.91-32.3,2.86H512c-2.13-.28-4.26-.71-6.4-.82a494.19,494.19,0,0,1-103.48-15.77Q185.54,994.48,71.42,801.33C32.82,735.94,10.49,664.88,2.85,589.28,1.77,578.53.94,567.76,0,557V512c.3-2.46.74-4.91.87-7.38,3.11-57.83,15-113.8,36.84-167.42q78-191.53,263.41-283.59c56.29-27.94,116-44.5,178.58-50.76C490.46,1.78,501.23,1,512,0ZM145.85,600.11V519.65c8.43,14.44,15.75,29,23.15,43.49,2.55,5,4.15,11.82,8.3,14.35s11,.58,16.6,1c3.73.27,5.6-1.14,7.23-4.45,8.53-17.31,17.31-34.49,26-51.71.6-1.2,1.41-2.3,2.12-3.44l.89.32V600h39.75V446.52c-1.84-.09-3.46-.22-5.08-.23-10.16,0-20.33.18-30.49-.1-3.77-.11-5.56,1.32-7.18,4.55-11.64,23.38-23.47,46.67-35.25,70-.87,1.72-1.8,3.42-3,5.76-1.24-2.27-2.12-3.8-2.91-5.38-12-23.6-23.94-47.18-35.76-70.84-1.46-2.93-3.06-4.14-6.42-4.07-11.33.22-22.66.07-34,.1-1.44,0-2.88.22-4.36.34V600.11ZM607.74,641V793.83h41.64v-49c3.18,0,5.87.3,8.46-.07,4.78-.67,7.42,1.25,9.83,5.41C675.5,763.74,683.9,777,691.9,790.4c1.64,2.75,3.35,4,6.68,3.87,9.49-.25,19-.09,28.49-.09H742.8l-35.43-54.54c5.64-4.57,11.45-8.13,15.8-13,14.06-15.77,16.56-34.33,9.58-53.68-7.11-19.71-23-30.41-43-31.58C662.7,639.79,635.5,641,607.74,641ZM301.92,446.54a10.87,10.87,0,0,0-.48,2c0,31-.11,62,.24,92.93.17,14.71,4.68,28.21,14.42,39.54,12.53,14.59,29.13,20.46,47.77,21.48,18,1,34.9-2.4,49.51-13.49,17.89-13.58,24.55-32.49,24.59-54.26q.06-41.72,0-83.45c0-1.46-.14-2.92-.23-4.67h-41v6.17q0,40,0,80a63.71,63.71,0,0,1-.76,9.94c-2,12.74-11.61,21-24.44,21.34-13.91.34-23.77-7-26.52-20a49.08,49.08,0,0,1-1-9.9q-.1-41,0-82v-5.59ZM443.08,794.17c-.46-1.39-.63-2-.87-2.61q-29.07-74.07-58.09-148.15c-1-2.66-2.42-3.4-5.13-3.37-11,.15-22,.29-33-.06-4.13-.13-5.69,1.41-7.1,5q-28,71.82-56.26,143.51c-.65,1.66-1.24,3.34-2.09,5.63,14.48,0,28.27.07,42.06-.14,1,0,2.5-1.87,3-3.16,2.36-6.39,4.54-12.86,6.59-19.35.8-2.56,1.92-3.71,4.86-3.68,15.83.17,31.65.13,47.48,0,2.55,0,3.83.71,4.63,3.27q3.11,10,6.86,19.8c.51,1.33,2.28,3.09,3.5,3.11C413.82,794.25,428.13,794.17,443.08,794.17Zm471.94,0c-.33-1.26-.45-2.06-.74-2.8Q885.21,717.29,856,643.28a6.14,6.14,0,0,0-4.58-3c-11.16-.26-22.33.06-33.48-.25-3.88-.1-5.45,1.36-6.77,4.74Q783,717,754.54,789.18c-.58,1.48-1.11,3-1.87,5,14.43,0,28.07.08,41.71-.15,1.18,0,2.87-1.9,3.39-3.27q3.6-9.57,6.61-19.35c.83-2.66,2.11-3.6,5-3.57q23.49.21,47,0c3.12,0,4.37,1.08,5.24,3.91,2,6.51,4.23,13,6.62,19.34.46,1.25,2,2.95,3.13,3C885.74,794.23,900.2,794.16,915,794.16Zm63.9-193.77c-.42-1.42-.56-2.06-.8-2.66Q949.05,523.63,920,449.51c-1.06-2.71-2.63-3.3-5.27-3.28-11,.12-22,.23-33-.05-3.84-.09-5.47,1.29-6.82,4.75q-27.46,70.44-55.19,140.79c-1,2.59-2,5.19-3,7.66.7.5,1,.84,1.22.84,13.33.08,26.66.21,40,0,1.22,0,3-1.83,3.5-3.19q3.63-9.55,6.61-19.35c.89-2.89,2.34-3.76,5.32-3.73q23.24.21,46.49,0c2.92,0,4.43.72,5.32,3.69,2,6.53,4.25,13,6.69,19.33.53,1.37,2.26,3.23,3.46,3.24C949.64,600.47,964,600.39,978.92,600.39ZM809.05,470.2c-15.66-22.65-56-32.34-88-21.49-34.86,11.8-55.77,43.07-54.12,80.92,1.48,33.88,25.65,62.37,59.87,70.58,34.53,8.3,69.56-5.35,83.28-26.55q-14.56-12.92-29.23-25.95c-17,21.58-45,19.49-59.07,6.68-16.24-14.75-17.56-42.12-3.17-58.85,12.51-14.53,42-19.53,60,1Zm-222,193.67c-17.73-23.52-58.4-32.61-90.58-20.55-34.3,12.85-54.1,44.61-51.52,82.67,2.2,32.6,26.9,60.58,60.26,68.14,35.76,8.11,69.48-6.2,82.73-26.65L560.79,743.3c-.61-.54-1.29-1-1.91-1.45-20.46,19.37-43.76,21.34-60.33,5.25-15.44-15-16.19-42.08-1.62-58.13,15.1-16.63,38.57-16.21,59.74,1.26Zm-312.46-5a72.3,72.3,0,0,0-27.09-16.21c-20.39-6.86-40.69-7.34-60,3.1-26.92,14.53-31.29,50.06-8.51,70.43,6.32,5.65,14.4,9.4,21.89,13.65,8.09,4.59,16.59,8.45,24.57,13.2,4.25,2.53,7.28,6.54,5.79,12.16-1.17,4.39-5.51,7.07-11.85,7.45a27,27,0,0,1-4.49-.19c-12-1.27-22.21-6.59-31.56-13.89-1.13-.89-2.3-1.73-3.55-2.66l-24.57,26.83c1.49,1,2.79,1.79,3.92,2.75a85.18,85.18,0,0,0,49,20.45c17,1.49,33.31-.79,47.56-11.14,24.49-17.79,25.8-51,2.06-69.65-8.77-6.9-19.4-11.44-29.23-17-5.21-2.92-10.69-5.4-15.77-8.54-4-2.45-6.07-6.4-4.68-11.15s5.4-6.08,9.72-6.55c8.85-.94,16.79,1.78,24.09,6.53,3,2,5.79,4.3,8.84,6.58Zm179.26-80.81c5.43,6.78,16,14,27.83,18.39,21.93,8,43.94,9.42,65.39-1.48,29-14.73,36-53.89,6.61-75.26-7.33-5.34-15.71-9.28-23.72-13.66-6.12-3.34-12.57-6.1-18.59-9.61-4.25-2.48-7.15-6.4-5.52-11.69s6.32-6.47,11.15-6.76c8.68-.53,16.36,2.46,23.44,7.19,2.73,1.82,5.25,3.94,8,6.07l24.7-27c-7.47-4.51-14-9.43-21.32-12.7-21.18-9.47-42.93-11-64.27-.8-29.72,14.2-34.35,52.22-9.05,73.27,5.18,4.31,11.37,7.5,17.35,10.71,6.29,3.38,13,6,19.33,9.3a62.52,62.52,0,0,1,9.91,6.67c3.33,2.65,5,6.24,3.92,10.61s-4.73,6.37-8.84,7a32,32,0,0,1-8.91.1c-11.23-1.41-20.87-6.5-29.68-13.36-1.28-1-2.55-2-3.93-3.08ZM599,446.52V600.11h42.22V446.52Zm188.68-45.63a14.21,14.21,0,0,0-.31-1.69q-20.5-63.31-41-126.65c-.94-2.93-2.58-3.18-5.13-3.36-3.22-.22-4.27,1.38-5.13,4.05q-14.56,45.33-29.28,90.61-6,18.4-11.94,36.81c5.5,1.84,8.25.47,9.76-5,3-10.89,6.84-21.54,10.11-32.35.77-2.57,1.94-3.37,4.53-3.35,14.48.1,29,.16,43.45,0,3.17,0,4.26,1.25,5.09,4,3.21,10.48,6.6,20.91,9.93,31.37C779.88,401.76,779.88,401.76,787.67,400.89Zm-483.41-6.14v-59.7h47.41v-6.34H304.29V275.83h55.36l-.33-6.1H296.6V400.89h63.57v-6.14Zm146.52-101.3a35.53,35.53,0,0,0-35.95-25.95c-12.67.5-23.38,4.85-28.66,17.22-5.48,12.81-2.79,24.79,6.82,34.53,5.79,5.85,12.8,10.54,19.48,15.44,5,3.64,10.7,6.29,15.31,10.28,4.32,3.74,8.58,8.17,11.17,13.17,9.79,18.86-2,37.74-23.16,38-11.43.15-19.67-5.36-25.86-14.4-2.31-3.39-4.09-7.13-6.27-11l-5.62,1.8a8.87,8.87,0,0,0,0,1.83,39.47,39.47,0,0,0,44.19,28.48c13.59-2,23.5-10.57,26.46-23.19,2.7-11.54,1.08-22.58-6.93-31.42-5.62-6.2-12.59-11.26-19.32-16.35-5-3.8-11.1-6.29-15.87-10.35s-9.81-8.84-12.76-14.35c-7.22-13.53-.33-27.95,14.24-31.71,12.77-3.3,25,1.27,32.34,12.22,1.57,2.32,2.82,4.86,4.37,7.58Zm154.14-23.71c.51,1.84.85,3.27,1.3,4.67q19.86,61.18,39.71,122.38c.85,2.63,1.48,4.65,5.14,4.68s4.79-1.6,5.76-4.63Q676.65,335.37,696.6,274c.45-1.37.71-2.8,1-4.18-5.36-1.64-8-.09-9.61,5.29-7.15,23.37-14.75,46.59-22.21,69.86-4.64,14.48-9.33,28.94-14.3,44.36-.84-2.38-1.37-3.76-1.82-5.16Q632.33,329.74,615,275.34C612.86,268.76,612.87,268.76,604.92,269.74Zm-389.29,65.4V276h54.13v-6.39H208.13V400.9h7.39V341.78h47.12c-.12-2.44-.21-4.34-.33-6.64Zm330.28-65.51H470.16v6.53h33.95v124.7h8v-125h33.83Zm266.4,131.28h59.88v-6.25h-52.5v-125h-7.38ZM580,401V269.65h-7.28V401Z"/><path class="cls-1" d="M145.85,600.11H105.46V446.64c1.48-.12,2.92-.34,4.36-.34,11.33,0,22.66.12,34-.1,3.36-.07,5,1.14,6.42,4.07C162.05,473.93,174,497.51,186,521.11c.79,1.58,1.67,3.11,2.91,5.38,1.23-2.34,2.16-4,3-5.76,11.78-23.32,23.61-46.61,35.25-70,1.62-3.23,3.41-4.66,7.18-4.55,10.16.28,20.33.08,30.49.1,1.62,0,3.24.14,5.08.23V600H230.18V519.2l-.89-.32c-.71,1.14-1.52,2.24-2.12,3.44-8.73,17.22-17.51,34.4-26,51.71-1.63,3.31-3.5,4.72-7.23,4.45-5.62-.41-12.43,1.55-16.6-1s-5.75-9.34-8.3-14.35c-7.4-14.51-14.72-29-23.15-43.49Z"/><path class="cls-1" d="M607.74,641c27.76,0,55-1.18,82,.4,20,1.17,35.9,11.87,43,31.58,7,19.35,4.48,37.91-9.58,53.68-4.35,4.88-10.16,8.44-15.8,13l35.43,54.54H727.07c-9.5,0-19-.16-28.49.09-3.33.09-5-1.12-6.68-3.87-8-13.45-16.4-26.66-24.23-40.21-2.41-4.16-5-6.08-9.83-5.41-2.59.37-5.28.07-8.46.07v49H607.74Zm41.72,71c10.61,0,20.77.74,30.78-.22,8.51-.82,13.58-7.82,13.94-16.35.4-9.6-3.67-17-12.43-18.46-10.51-1.72-21.35-1.46-32.29-2.07Z"/><path class="cls-1" d="M301.92,446.54H344v5.59q0,41,0,82a49.08,49.08,0,0,0,1,9.9c2.75,13,12.61,20.35,26.52,20,12.83-.31,22.41-8.6,24.44-21.34a63.71,63.71,0,0,0,.76-9.94q.07-40,0-80v-6.17h41c.09,1.75.23,3.21.23,4.67q0,41.73,0,83.45c0,21.77-6.7,40.68-24.59,54.26-14.61,11.09-31.55,14.48-49.51,13.49-18.64-1-35.24-6.89-47.77-21.48-9.74-11.33-14.25-24.83-14.42-39.54-.35-31-.2-62-.24-92.93A10.87,10.87,0,0,1,301.92,446.54Z"/><path class="cls-1" d="M443.08,794.17c-14.95,0-29.26.08-43.57-.14-1.22,0-3-1.78-3.5-3.11q-3.75-9.78-6.86-19.8c-.8-2.56-2.08-3.29-4.63-3.27-15.83.1-31.65.14-47.48,0-2.94,0-4.06,1.12-4.86,3.68-2.05,6.49-4.23,13-6.59,19.35-.47,1.29-1.94,3.15-3,3.16-13.79.21-27.58.14-42.06.14.85-2.29,1.44-4,2.09-5.63Q310.82,716.79,338.91,645c1.41-3.62,3-5.16,7.1-5,11,.35,22,.21,33,.06,2.71,0,4.1.71,5.13,3.37q29,74.1,58.09,148.15C442.45,792.15,442.62,792.78,443.08,794.17ZM360.74,688.58l-15.88,46h31.57C371.23,719.34,366.18,704.55,360.74,688.58Z"/><path class="cls-1" d="M915,794.16c-14.82,0-29.28.07-43.73-.13-1.09,0-2.67-1.71-3.13-3-2.39-6.38-4.62-12.83-6.62-19.34-.87-2.83-2.12-3.94-5.24-3.91q-23.47.25-47,0c-2.84,0-4.12.91-5,3.57q-3,9.76-6.61,19.35c-.52,1.37-2.21,3.25-3.39,3.27-13.64.23-27.28.15-41.71.15.76-2,1.29-3.51,1.87-5Q782.88,717,811.16,644.73c1.32-3.38,2.89-4.84,6.77-4.74,11.15.31,22.32,0,33.48.25a6.14,6.14,0,0,1,4.58,3q29.32,74,58.29,148.08C914.57,792.1,914.69,792.9,915,794.16Zm-66.39-59.52c-5.27-15.39-10.27-30-15.26-44.55l-1.09.24C827.22,705,822.17,719.68,817,734.64Z"/><path class="cls-1" d="M978.92,600.39c-15,0-29.28.08-43.58-.15-1.2,0-2.93-1.87-3.46-3.24-2.44-6.36-4.72-12.8-6.69-19.33-.89-3-2.4-3.71-5.32-3.69q-23.25.19-46.49,0c-3,0-4.43.84-5.32,3.73q-3,9.78-6.61,19.35c-.51,1.36-2.28,3.17-3.5,3.19-13.32.18-26.65,0-40,0-.26,0-.52-.34-1.22-.84,1-2.47,2-5.07,3-7.66q27.63-70.38,55.19-140.79c1.35-3.46,3-4.84,6.82-4.75,11,.28,22,.17,33,.05,2.64,0,4.21.57,5.27,3.28q29,74.14,58.11,148.22C978.36,598.33,978.5,599,978.92,600.39Zm-82.28-105.6-15.88,46h31.58C907.15,525.57,902.08,510.71,896.64,494.79Z"/><path class="cls-1" d="M809.05,470.2l-30.43,26.32c-18.06-20.51-47.52-15.51-60-1-14.39,16.73-13.07,44.1,3.17,58.85,14.12,12.81,42,14.9,59.07-6.68q14.67,13,29.23,25.95c-13.72,21.2-48.75,34.85-83.28,26.55-34.22-8.21-58.39-36.7-59.87-70.58-1.65-37.85,19.26-69.12,54.12-80.92C753.07,437.86,793.39,447.55,809.05,470.2Z"/><path class="cls-1" d="M587.09,663.87l-30.42,26.36C535.5,672.76,512,672.34,496.93,689c-14.57,16-13.82,43.13,1.62,58.13,16.57,16.09,39.87,14.12,60.33-5.25.62.47,1.3.91,1.91,1.45L588,767.48c-13.25,20.45-47,34.76-82.73,26.65C471.89,786.57,447.19,758.59,445,726c-2.58-38.06,17.22-69.82,51.52-82.67C528.69,631.26,569.36,640.35,587.09,663.87Z"/><path class="cls-1" d="M274.63,658.92,250.68,685.1c-3.05-2.28-5.82-4.61-8.84-6.58-7.3-4.75-15.24-7.47-24.09-6.53-4.32.47-8.36,1.92-9.72,6.55s.71,8.7,4.68,11.15c5.08,3.14,10.56,5.62,15.77,8.54,9.83,5.53,20.46,10.07,29.23,17,23.74,18.67,22.43,51.86-2.06,69.65C241.4,795.2,225.11,797.48,208.09,796a85.18,85.18,0,0,1-49-20.45c-1.13-1-2.43-1.71-3.92-2.75L179.79,746c1.25.93,2.42,1.77,3.55,2.66,9.35,7.3,19.57,12.62,31.56,13.89a27,27,0,0,0,4.49.19c6.34-.38,10.68-3.06,11.85-7.45,1.49-5.62-1.54-9.63-5.79-12.16-8-4.75-16.48-8.61-24.57-13.2-7.49-4.25-15.57-8-21.89-13.65-22.78-20.37-18.41-55.9,8.51-70.43,19.35-10.44,39.65-10,60-3.1A72.3,72.3,0,0,1,274.63,658.92Z"/><path class="cls-1" d="M453.89,578.11l23.85-26c1.38,1.08,2.65,2.09,3.93,3.08,8.81,6.86,18.45,12,29.68,13.36a32,32,0,0,0,8.91-.1c4.11-.65,7.68-2.54,8.84-7s-.59-8-3.92-10.61a62.52,62.52,0,0,0-9.91-6.67c-6.34-3.3-13-5.92-19.33-9.3-6-3.21-12.17-6.4-17.35-10.71-25.3-21.05-20.67-59.07,9.05-73.27,21.34-10.19,43.09-8.67,64.27.8,7.29,3.27,13.85,8.19,21.32,12.7l-24.7,27c-2.8-2.13-5.32-4.25-8-6.07-7.08-4.73-14.76-7.72-23.44-7.19-4.83.29-9.53,1.46-11.15,6.76s1.27,9.21,5.52,11.69c6,3.51,12.47,6.27,18.59,9.61,8,4.38,16.39,8.32,23.72,13.66,29.35,21.37,22.38,60.53-6.61,75.26-21.45,10.9-43.46,9.53-65.39,1.48C469.85,592.15,459.32,584.89,453.89,578.11Z"/><path class="cls-1" d="M599,446.52h42.22V600.11H599Z"/><path class="cls-1" d="M787.67,400.89c-7.79.87-7.79.87-9.87-5.67-3.33-10.46-6.72-20.89-9.93-31.37-.83-2.71-1.92-4-5.09-4-14.48.2-29,.14-43.45,0-2.59,0-3.76.78-4.53,3.35-3.27,10.81-7.11,21.46-10.11,32.35-1.51,5.5-4.26,6.87-9.76,5q6-18.41,11.94-36.81,14.67-45.3,29.28-90.61c.86-2.67,1.91-4.27,5.13-4.05,2.55.18,4.19.43,5.13,3.36q20.36,63.36,41,126.65A14.21,14.21,0,0,1,787.67,400.89ZM764.4,353.52c-7.73-24.22-15.23-47.72-22.72-71.22l-1.15.08c-7.52,23.59-15,47.18-22.66,71.14Z"/><path class="cls-1" d="M304.26,394.75h55.91v6.14H296.6V269.73h62.72l.33,6.1H304.29v52.88h47.38v6.34H304.26Z"/><path class="cls-1" d="M450.78,293.45l-6,1.84c-1.55-2.72-2.8-5.26-4.37-7.58-7.37-10.95-19.57-15.52-32.34-12.22-14.57,3.76-21.46,18.18-14.24,31.71,2.95,5.51,7.91,10.23,12.76,14.35s10.84,6.55,15.87,10.35c6.73,5.09,13.7,10.15,19.32,16.35,8,8.84,9.63,19.88,6.93,31.42-3,12.62-12.87,21.2-26.46,23.19a39.47,39.47,0,0,1-44.19-28.48,8.87,8.87,0,0,1,0-1.83l5.62-1.8c2.18,3.86,4,7.6,6.27,11,6.19,9,14.43,14.55,25.86,14.4,21.17-.26,32.95-19.14,23.16-38-2.59-5-6.85-9.43-11.17-13.17-4.61-4-10.35-6.64-15.31-10.28-6.68-4.9-13.69-9.59-19.48-15.44-9.61-9.74-12.3-21.72-6.82-34.53,5.28-12.37,16-16.72,28.66-17.22A35.53,35.53,0,0,1,450.78,293.45Z"/><path class="cls-1" d="M604.92,269.74c8-1,7.94-1,10,5.6q17.37,54.41,34.75,108.79c.45,1.4,1,2.78,1.82,5.16,5-15.42,9.66-29.88,14.3-44.36,7.46-23.27,15.06-46.49,22.21-69.86,1.65-5.38,4.25-6.93,9.61-5.29-.34,1.38-.6,2.81-1,4.18q-19.89,61.44-39.77,122.88c-1,3-2.08,4.67-5.76,4.63s-4.29-2.05-5.14-4.68q-19.81-61.2-39.71-122.38C605.77,273,605.43,271.58,604.92,269.74Z"/><path class="cls-1" d="M215.63,335.14h46.68c.12,2.3.21,4.2.33,6.64H215.52V400.9h-7.39V269.62h61.63V276H215.63Z"/><path class="cls-1" d="M545.91,269.63v6.24H512.08v125h-8V276.16H470.16v-6.53Z"/><path class="cls-1" d="M812.31,400.91V269.63h7.38v125h52.5v6.25Z"/><path class="cls-1" d="M580,401h-7.28V269.65H580Z"/><path d="M649.46,712v-37.1c10.94.61,21.78.35,32.29,2.07,8.76,1.43,12.83,8.86,12.43,18.46-.36,8.53-5.43,15.53-13.94,16.35C670.23,712.72,660.07,712,649.46,712Z"/><path d="M360.74,688.58c5.44,16,10.49,30.76,15.69,46H344.86Z"/><path d="M848.63,734.64H817c5.16-15,10.21-29.63,15.27-44.31l1.09-.24C838.36,704.67,843.36,719.25,848.63,734.64Z"/><path d="M896.64,494.79c5.44,15.92,10.51,30.78,15.7,46H880.76Z"/><path d="M764.4,353.52H717.87c7.63-24,15.14-47.55,22.66-71.14l1.15-.08C749.17,305.8,756.67,329.3,764.4,353.52Z"/></g></svg>