<svg xmlns="http://www.w3.org/2000/svg" xmlns:xlink="http://www.w3.org/1999/xlink" width="52" height="52" viewBox="0 0 52 52">
  <defs>
    <clipPath id="clip-path">
      <rect id="insta_1" width="33.313" height="33.359" fill="#fff"/>
    </clipPath>
  </defs>
  <g id="instagram_icon" transform="translate(-76.459 -448.459)">
    <circle id="bg_insta" cx="26" cy="26" r="26" transform="translate(76.459 448.459)" fill="#000"/>
    <g id="insta" transform="translate(85.803 457.779)">
      <g id="icon_insta" clip-path="url(#clip-path)">
        <path id="insta_path_1" d="M.233,8.049A8.644,8.644,0,0,1,8,.269,34.611,34.611,0,0,1,12.169,0C16.084,0,20,.015,23.911.121c5.522.15,9.218,3.815,9.328,9.337.1,4.883.1,9.773-.014,14.655a8.819,8.819,0,0,1-4.583,7.972,8.93,8.93,0,0,1-4.284,1.19c-5.134.055-10.274.167-15.4-.02C3.731,33.065.239,29.344.073,24.113-.006,21.623.06,19.128.06,16.635A72.5,72.5,0,0,1,.233,8.049M16.657,3.064c-2.393,0-4.787-.059-7.178.013C5.5,3.2,3.1,5.559,3.03,9.533q-.127,7.176,0,14.356C3.1,27.865,5.5,30.267,9.48,30.338q7.176.128,14.356,0c3.976-.071,6.378-2.474,6.449-6.449q.128-7.176,0-14.356c-.071-3.975-2.474-6.335-6.45-6.456-2.39-.073-4.785-.013-7.178-.013" transform="translate(0 0)" fill="#fff"/>
        <path id="insta_path_2" d="M71.254,63.082a8.551,8.551,0,1,1-8.533-8.567,8.5,8.5,0,0,1,8.533,8.567M57.1,63.095a5.605,5.605,0,1,0,5.576-5.634A5.574,5.574,0,0,0,57.1,63.095" transform="translate(-46.046 -46.354)" fill="#fff"/>
        <path id="insta_path_3" d="M161.93,40.73a1.957,1.957,0,1,1-1.97-1.987,1.935,1.935,0,0,1,1.97,1.987" transform="translate(-134.362 -32.943)" fill="#fff"/>
      </g>
    </g>
  </g>
</svg>
